# File created by Blade
# Date/Time:  Wed Apr 08 17:00:23 2015
#---------------------------------------------------------
:version 1.10
:name HOM
:units
  mass 1.0
  length 1.000000
  angle deg
:documentation
     Acclaim Skeleton File
:root
   axis xyz
   order TX TY TZ RX RY RZ
   position 0.000000 0.000000 0.000000
   orientation 0 0 0
:bonedata
   begin
      id 1
      name Spine_dum
      direction 0.000000 1.000000 0.000000
      length 5.893853
      axis 0.0 0.0 0.0 xyz
   end
   begin
      id 2
      name LeftUpLeg_dum
      direction 1.000000 0.000000 0.000000
      length 3.697939
      axis 0.0 0.0 0.0 xyz
   end
   begin
      id 3
      name RightUpLeg_dum
      direction -1.000000 0.000000 0.000000
      length 3.697939
      axis 0.0 0.0 0.0 xyz
   end
   begin
      id 4
      name Spine
      direction 0.000000 1.000000 0.000000
      length 0.000000
      axis 0.0 0.0 0.0 xyz
      dof rx ry rz
   end
   begin
      id 5
      name Spine_dum1
      direction 0.000000 1.000000 0.000000
      length 16.447146
      axis 0.0 0.0 0.0 xyz
   end
   begin
      id 6
      name Spine_dum2
      direction 0.000000 1.000000 0.000000
      length 10.900383
      axis 0.0 0.0 0.0 xyz
   end
   begin
      id 7
      name Spine_dum3
      direction 0.000000 1.000000 0.000000
      length 10.900383
      axis 0.0 0.0 0.0 xyz
   end
   begin
      id 8
      name Head
      direction 0.000000 1.000000 0.000000
      length 4.527550
      axis 0.0 0.0 0.0 xyz
      dof rx ry rz
   end
   begin
      id 9
      name LeftShoulder
      direction 1.000000 0.000000 0.000000
      length 8.219464
      axis 0.0 0.0 -90.0 xyz
      dof rx ry rz
   end
   begin
      id 10
      name LeftArm
      direction 1.000000 0.000000 0.000000
      length 11.094937
      axis 0.0 0.0 -90.0 xyz
      dof rx ry rz
   end
   begin
      id 11
      name LeftForeArm
      direction 1.000000 0.000000 0.000000
      length 9.103875
      axis 0.0 0.0 -90.0 xyz
      dof ry rz rx
   end
   begin
      id 12
      name LeftHand
      direction 0.000000 0.000000 0.000000
      length 0.000000
      axis 0.0 0.0 -90.0 xyz
      dof rx ry rz
   end
   begin
      id 13
      name LeftHand_dum1
      direction 0.000000 0.000000 0.000000
      length 0.000000
      axis 0.0 0.0 -90.0 xyz
   end
   begin
      id 14
      name LeftHand_dum2
      direction 1.000000 0.000000 0.000000
      length 3.937000
      axis 0.0 0.0 -90.0 xyz
   end
   begin
      id 15
      name LeftHandThumb1
      direction 0.000000 0.000000 1.000000
      length 3.937000
      axis 0.0 0.0 -90.0 xyz
      dof rx rz ry
   end
   begin
      id 16
      name RightShoulder
      direction -1.000000 0.000000 0.000000
      length 8.219464
      axis 0.0 0.0 90.0 xyz
      dof rx ry rz
   end
   begin
      id 17
      name RightArm
      direction -1.000000 0.000000 0.000000
      length 11.094937
      axis 0.0 0.0 90.0 xyz
      dof rx ry rz
   end
   begin
      id 18
      name RightForeArm
      direction -1.000000 0.000000 0.000000
      length 9.103875
      axis 0.0 0.0 90.0 xyz
      dof ry rz rx
   end
   begin
      id 19
      name RightHand
      direction 0.000000 0.000000 0.000000
      length 0.000000
      axis 0.0 0.0 90.0 xyz
      dof rx ry rz
   end
   begin
      id 20
      name RightHand_dum1
      direction 0.000000 0.000000 0.000000
      length 0.000000
      axis 0.0 0.0 90.0 xyz
   end
   begin
      id 21
      name RightHand_dum2
      direction -1.000000 0.000000 0.000000
      length 3.937000
      axis 0.0 0.0 90.0 xyz
   end
   begin
      id 22
      name RightHandThumb1
      direction 0.000000 0.000000 1.000000
      length 3.937000
      axis 0.0 0.0 90.0 xyz
      dof rx rz ry
   end
   begin
      id 23
      name LeftUpLeg
      direction 0.000000 -1.000000 0.000000
      length 16.181467
      axis 0.0 0.0 0.0 xyz
      dof rx ry rz
   end
   begin
      id 24
      name LeftLeg
      direction 0.000000 -1.000000 0.000000
      length 16.501392
      axis 0.0 0.0 0.0 xyz
      dof rx ry rz
   end
   begin
      id 25
      name LeftFoot
      direction 0.000000 -0.258819 0.965926
      length 6.408245
      axis 15.0 0.0 0.0 xyz
      dof rx ry rz
   end
   begin
      id 26
      name LeftToeBase
      direction 0.000000 0.000000 1.000000
      length 2.952750
      axis 0.0 0.0 0.0 xyz
      dof rx ry rz
   end
   begin
      id 27
      name RightUpLeg
      direction 0.000000 -1.000000 0.000000
      length 16.181467
      axis 0.0 0.0 0.0 xyz
      dof rx ry rz
   end
   begin
      id 28
      name RightLeg
      direction 0.000000 -1.000000 0.000000
      length 16.501392
      axis 0.0 0.0 0.0 xyz
      dof rx ry rz
   end
   begin
      id 29
      name RightFoot
      direction 0.000000 -0.258819 0.965926
      length 6.408245
      axis 15.0 0.0 0.0 xyz
      dof rx ry rz
   end
   begin
      id 30
      name RightToeBase
      direction 0.000000 0.000000 1.000000
      length 2.952750
      axis 0.0 0.0 0.0 xyz
      dof rx ry rz
   end
:hierarchy
   begin
      root Spine_dum LeftUpLeg_dum RightUpLeg_dum
      Spine_dum Spine
      LeftUpLeg_dum LeftUpLeg
      RightUpLeg_dum RightUpLeg
      Spine Spine_dum1 Spine_dum2 Spine_dum3
      Spine_dum1 Head
      Spine_dum2 LeftShoulder
      Spine_dum3 RightShoulder
      LeftShoulder LeftArm
      LeftArm LeftForeArm
      LeftForeArm LeftHand
      LeftHand LeftHand_dum1 LeftHand_dum2
      LeftHand_dum1 LeftHandThumb1
      RightShoulder RightArm
      RightArm RightForeArm
      RightForeArm RightHand
      RightHand RightHand_dum1 RightHand_dum2
      RightHand_dum1 RightHandThumb1
      LeftUpLeg LeftLeg
      LeftLeg LeftFoot
      LeftFoot LeftToeBase
      RightUpLeg RightLeg
      RightLeg RightFoot
      RightFoot RightToeBase
   end

# File created by Blade
# Date/Time:  Wed Apr 08 17:00:17 2015
# Frame Rate: 120.000 fps
#------------------------------------------------------
:FULLY-SPECIFIED
:DEGREES
694
root 1.272653 35.619229 2.753002 -23.933258 -73.211691 11.144307
Spine 11.490902 8.408911 -11.394311
Head -6.900371 -6.539237 -3.560776
LeftShoulder 8.915673 -1.193578 23.311742
LeftArm 90.479436 48.137806 -49.396425
LeftForeArm -48.571688 -0.000000 90.025730
LeftHand -22.012703 -0.000000 9.173471
LeftHandThumb1 -26.253704 0.000000 33.147579
RightShoulder 3.467774 -30.971579 -31.261499
RightArm 89.429175 33.873055 34.953216
RightForeArm -1.619200 0.000000 130.962357
RightHand 1.452415 -0.000000 31.782069
RightHandThumb1 -24.326973 -0.000000 -32.862282
LeftUpLeg 11.941654 1.812594 4.137152
LeftLeg 13.936001 -0.000000 -0.000000
LeftFoot -14.172925 -2.660149 -10.184514
LeftToeBase 9.249640 -0.000000 -0.000000
RightUpLeg 25.518727 -20.503105 -18.816486
RightLeg 1.952455 -0.000000 -0.000000
RightFoot -13.645841 3.224873 20.437891
RightToeBase 14.342921 -0.000000 -0.000000
695
root 1.271563 35.618734 2.753551 -23.921052 -73.233015 11.137678
Spine 11.458015 8.428558 -11.384487
Head -7.022684 -6.398712 -3.598425
LeftShoulder 8.899194 -1.210849 23.329253
LeftArm 90.515034 48.097251 -49.344546
LeftForeArm -48.602539 0.000000 90.022070
LeftHand -22.130362 -0.000000 9.226297
LeftHandThumb1 -26.253704 0.000000 33.147579
RightShoulder 3.366423 -31.075094 -31.194774
RightArm 89.741229 33.876863 35.477728
RightForeArm 0.880946 -0.000000 131.188077
RightHand 1.224561 -0.000000 31.980600
RightHandThumb1 -24.326973 -0.000000 -32.862282
LeftUpLeg 11.927072 1.824120 4.143509
LeftLeg 13.968257 -0.000000 -0.000000
LeftFoot -14.193897 -2.651421 -10.206547
LeftToeBase 9.265138 -0.000000 -0.000000
RightUpLeg 25.492302 -20.478318 -18.799822
RightLeg 1.978054 -0.000000 -0.000000
RightFoot -13.659605 3.235765 20.465948
RightToeBase 14.357408 -0.000000 -0.000000
696
root 1.271067 35.618367 2.755349 -23.920879 -73.246291 11.138453
Spine 11.439444 8.427823 -11.371851
Head -7.165209 -6.256476 -3.674254
LeftShoulder 8.875069 -1.245800 23.333361
LeftArm 90.520515 48.078373 -49.315267
LeftForeArm -48.655425 -0.000000 90.039745
LeftHand -22.227024 -0.000000 9.212619
LeftHandThumb1 -26.253704 0.000000 33.147579
RightShoulder 3.302572 -31.105367 -31.163788
RightArm 89.980337 33.820330 35.993755
RightForeArm 3.596823 0.000000 131.434878
RightHand 0.722914 -0.000000 32.483668
RightHandThumb1 -24.326973 -0.000000 -32.862282
LeftUpLeg 11.921885 1.808109 4.138322
LeftLeg 13.983310 -0.000000 -0.000000
LeftFoot -14.208742 -2.631371 -10.207128
LeftToeBase 9.265805 -0.000000 -0.000000
RightUpLeg 25.470607 -20.470822 -18.800212
RightLeg 2.014704 -0.000000 -0.000000
RightFoot -13.669598 3.253407 20.462135
RightToeBase 14.374483 -0.000000 -0.000000
697
root 1.270129 35.617420 2.756395 -23.919756 -73.257421 11.138692
Spine 11.417665 8.425773 -11.362375
Head -7.311551 -6.101030 -3.742894
LeftShoulder 8.858937 -1.274206 23.347227
LeftArm 90.545372 48.057646 -49.269288
LeftForeArm -48.672935 -0.000000 90.061107
LeftHand -22.299436 -0.000000 9.227506
LeftHandThumb1 -26.253704 0.000000 33.147579
RightShoulder 3.272325 -31.132043 -31.126663
RightArm 90.096565 33.806678 36.330595
RightForeArm 5.622136 -0.000000 131.678442
RightHand 0.398220 -0.000000 32.120652
RightHandThumb1 -24.326973 -0.000000 -32.862282
LeftUpLeg 11.910266 1.806862 4.139712
LeftLeg 14.011235 -0.000000 -0.000000
LeftFoot -14.238506 -2.628500 -10.231435
LeftToeBase 9.319704 -0.000000 -0.000000
RightUpLeg 25.457151 -20.458527 -18.796703
RightLeg 2.032123 -0.000000 -0.000000
RightFoot -13.675756 3.267810 20.488502
RightToeBase 14.350385 -0.000000 -0.000000
698
root 1.268463 35.617303 2.758045 -23.920249 -73.274798 11.140456
Spine 11.388654 8.410237 -11.348266
Head -7.433752 -5.934702 -3.822811
LeftShoulder 8.847423 -1.279357 23.346109
LeftArm 90.552270 48.034602 -49.229156
LeftForeArm -48.671993 0.000000 90.082743
LeftHand -22.349417 0.000000 9.208263
LeftHandThumb1 -26.253704 0.000000 33.147579
RightShoulder 3.219404 -31.164267 -31.103016
RightArm 90.313230 33.745716 36.790861
RightForeArm 7.818257 0.000000 131.817841
RightHand 0.084512 -0.000000 32.089848
RightHandThumb1 -24.326973 -0.000000 -32.862282
LeftUpLeg 11.923380 1.810937 4.137594
LeftLeg 13.996416 -0.000000 -0.000000
LeftFoot -14.245967 -2.600254 -10.228044
LeftToeBase 9.330217 -0.000000 -0.000000
RightUpLeg 25.446303 -20.437193 -18.787797
RightLeg 2.041189 -0.000000 -0.000000
RightFoot -13.679702 3.265039 20.494124
RightToeBase 14.369696 -0.000000 -0.000000
699
root 1.267386 35.616915 2.760258 -23.934881 -73.293987 11.156248
Spine 11.358865 8.406166 -11.338701
Head -7.539030 -5.786812 -3.894727
LeftShoulder 8.845613 -1.270894 23.357222
LeftArm 90.559953 48.011100 -49.204173
LeftForeArm -48.629220 -0.000000 90.085977
LeftHand -22.389107 -0.000000 9.126313
LeftHandThumb1 -26.253704 0.000000 33.147579
RightShoulder 3.200423 -31.184805 -31.069000
RightArm 90.413187 33.727158 37.193486
RightForeArm 9.465002 -0.000000 132.073603
RightHand 0.009813 0.000000 32.034501
RightHandThumb1 -24.326973 -0.000000 -32.862282
LeftUpLeg 11.917661 1.841604 4.146245
LeftLeg 14.020495 -0.000000 -0.000000
LeftFoot -14.233192 -2.656705 -10.282711
LeftToeBase 9.261057 -0.000000 -0.000000
RightUpLeg 25.435212 -20.431604 -18.795939
RightLeg 2.055917 -0.000000 -0.000000
RightFoot -13.671208 3.302234 20.538122
RightToeBase 14.355742 -0.000000 -0.000000
